<svg width="136" height="32" viewBox="0 0 136 32" fill="none" xmlns="http://www.w3.org/2000/svg">
<path d="M31.9821 15.2877C31.9934 15.5219 32.0001 15.7545 32.0016 15.9864V15.9991C32.0016 23.4013 26.9759 29.63 20.1491 31.4573C19.0288 31.7549 17.8797 31.9312 16.7218 31.9831C16.3731 31.9989 16.0259 32.0034 15.6809 31.9974C7.58344 31.8388 0.96085 25.6648 0.0957863 17.7591C0.0589278 17.4167 0.0334915 17.0732 0.0195199 16.7291C0.00814253 16.4971 0.00163445 16.2649 0 16.0327L0 15.9991C0 7.16435 7.16286 0 16.0004 0C23.5374 0 29.8554 5.2099 31.5534 12.2224C31.7947 13.2279 31.9383 14.2545 31.9821 15.2877ZM24.4459 7.97C23.5097 7.71123 22.8175 7.48904 22.6133 7.05896C22.5167 6.85544 22.5758 6.65054 22.709 6.55475C22.8535 6.44926 23.048 6.48446 23.2748 6.59518C23.6101 6.75752 24.0201 6.99838 24.3352 7.0372C25.2525 7.14792 25.0849 5.74473 23.4364 4.93012C22.4666 4.44841 21.5177 4.25097 20.2321 4.29876C19.7562 4.31828 19.3072 4.301 18.9091 4.23817C18.3082 4.14548 17.5719 3.89033 17.0758 3.78719C16.6964 3.70708 16.4801 3.71764 16.3895 3.84404C16.3058 3.96372 16.3326 4.14025 16.5639 4.43273C17.0279 5.01758 17.759 5.66835 17.3848 7.19059C16.4591 10.9642 17.7268 12.6914 19.0184 12.9749C19.742 13.1357 20.4087 12.9659 20.8158 12.5433C21.2027 12.1386 21.3695 11.4541 20.9969 10.8745C20.4267 9.98663 20.2254 9.21469 20.735 8.89373C21.2005 8.59986 21.8619 8.87058 22.3648 9.99559C23.1692 11.7983 24.2161 12.2762 25.2631 10.9942C26.1206 9.94397 26.087 8.42333 24.4459 7.97ZM21.5327 17.8197C17.1932 15.2197 15.0411 14.1911 13.2848 12.9375C10.3746 10.8626 9.91442 9.31645 9.82535 8.24083C9.66674 6.31539 11.1237 4.58228 12.6068 3.76543C12.7213 3.69588 12.9174 3.53588 12.8321 3.31668C12.746 3.09524 12.4804 3.13791 12.3809 3.15956C9.06354 3.86345 5.83987 6.7844 6.34046 10.6838C6.54025 12.2283 7.52275 14.8366 12.6105 17.8325C14.3459 18.8535 15.844 19.6277 18.196 20.974C21.3808 22.7947 22.8468 25.1404 20.8742 27.6993C20.7245 27.8781 20.5958 28.0636 20.6496 28.2252C20.7103 28.4122 20.9565 28.4444 21.1863 28.3411C22.7001 27.644 23.9505 26.5976 24.5462 25.6274C25.5946 23.919 26.1168 20.5687 21.5327 17.8197ZM16.4569 28.202C16.0723 28.0913 15.4886 27.9103 15.0022 27.6978C14.3885 27.4301 13.8341 27.1361 13.5894 26.8938C13.4292 26.7329 13.4045 26.5512 13.5325 26.3642C14.2659 25.3102 14.4724 24.8928 14.6774 24.3969C15.1129 23.3467 14.6826 23.245 14.0069 23.4395C13.2721 23.6496 12.6906 23.8643 12.2402 24.0334C11.6086 24.269 11.218 24.4134 10.9882 24.3011C10.7488 24.1852 10.7046 23.7693 10.6185 23.0797C10.5579 22.589 10.4547 22.0295 10.323 21.4834C10.0514 20.3892 9.5829 20.5993 9.19602 21.0466C8.7141 21.6315 8.44851 22.3557 8.24861 22.7356C8.14163 22.939 8.01896 23.0064 7.86931 22.9742C7.53555 22.9032 7.0948 22.3863 6.61363 21.7722C5.91091 20.8739 5.59742 20.1834 5.23145 20.1407C4.45396 20.0503 4.79966 21.8889 5.52926 23.4043C6.24094 24.8876 7.34472 26.3478 9.19378 27.5161C11.3032 28.8513 14.4208 29.336 16.3356 29.0667C16.9403 28.9815 17.06 28.3756 16.4569 28.202Z" fill="white"/>
<path d="M40.8399 17.7894C41.0953 17.7631 41.4018 17.6814 41.7649 17.5393C42.1266 17.3963 42.5086 17.2123 42.9116 16.9883C43.3097 16.764 43.7002 16.5258 44.0821 16.274C45.4136 15.3721 46.5309 14.2704 47.4335 12.9668C47.8128 13.5027 48.2773 14.0067 48.83 14.4829C49.3762 14.9562 49.9562 15.3879 50.5651 15.7743C51.6363 16.4411 52.4689 16.842 53.0685 16.9749C53.6702 17.1085 54.0501 17.0247 54.2146 16.7233L55.2767 14.6962C54.5539 14.4452 53.8326 14.1381 53.1161 13.7678C52.4024 13.4025 51.763 12.9668 51.1935 12.4672C50.6288 11.9653 50.1642 11.3853 49.8032 10.7257C49.4394 10.0654 49.2589 9.32765 49.2589 8.50955V5.17802H44.9945C44.8133 5.17802 44.6895 5.25488 44.6243 5.40344C44.5579 5.55409 44.5999 5.72114 44.7461 5.90312C44.9784 6.17247 45.1211 6.43473 45.1785 6.69344C45.2372 6.95142 45.2646 7.29126 45.2646 7.70845V8.75822C45.2646 9.56005 45.1057 10.2957 44.7853 10.9652C44.4641 11.6327 44.0248 12.2417 43.4657 12.7927C42.9053 13.3449 42.2617 13.841 41.5298 14.2811C40.7994 14.7253 40.0214 15.1048 39.2 15.4225L40.3334 17.6011C40.4166 17.7517 40.5831 17.8143 40.8399 17.7894ZM47.5339 24.8029C47.2861 24.611 47.1623 24.2229 47.1623 23.6372V19.0789H42.972C42.7888 19.0789 42.667 19.1536 42.6033 19.3042C42.5362 19.4549 42.5768 19.6199 42.7271 19.8024C42.9573 20.0918 43.1008 20.3519 43.1574 20.5936C43.2142 20.8381 43.2449 21.1743 43.2449 21.6093V24.0146C43.2449 24.7801 43.3428 25.4177 43.5395 25.9159C43.7375 26.4178 44.0397 26.818 44.4525 27.1192C44.8639 27.4207 45.3726 27.6282 45.9813 27.7455C46.5886 27.8621 47.303 27.9217 48.1237 27.9217H61.4388V25.0914H48.7421C48.181 25.0914 47.7801 24.994 47.5339 24.8029ZM61.0696 20.3577V4.77454H56.8541C56.6729 4.77454 56.5456 4.84919 56.4713 4.98846C56.3973 5.13213 56.4342 5.29551 56.5819 5.47969C56.8121 5.74696 56.9716 6.0113 57.0633 6.27858C57.1528 6.54659 57.1997 6.89769 57.1997 7.33055V20.3577H61.0696ZM67.6531 25.9163C67.8489 26.4201 68.1548 26.8197 68.5633 27.1202C68.9761 27.4202 69.4862 27.6264 70.0928 27.7464C70.7015 27.8644 71.4172 27.9241 72.2386 27.9241H85.3579V25.0917H72.9047C72.3289 25.0917 71.9133 24.9879 71.66 24.7917C71.4047 24.5913 71.278 24.189 71.278 23.587V20.0793H67.0871C66.9038 20.0793 66.7813 20.1575 66.7155 20.3081C66.6504 20.456 66.691 20.6223 66.8387 20.8072C67.0199 21.0254 67.1522 21.2335 67.2332 21.4347C67.3159 21.6337 67.3578 21.8598 67.3578 22.11V23.9893C67.3578 24.7725 67.4544 25.4144 67.6531 25.9163ZM69.4537 10.6005C69.9114 10.024 70.5795 9.73407 71.4513 9.73407C72.3056 9.73407 72.9654 10.024 73.4348 10.6005C73.9043 11.1777 74.14 11.8905 74.14 12.7428C74.14 13.5431 73.9043 14.2326 73.4348 14.8068C72.9654 15.3862 72.3056 15.6719 71.4513 15.6719C70.5795 15.6719 69.9114 15.3862 69.4537 14.8068C68.9913 14.2326 68.764 13.5431 68.764 12.7428C68.764 11.8905 68.9913 11.1777 69.4537 10.6005ZM65.3727 11.0881C65.1684 11.6232 65.0634 12.216 65.0634 12.8665C65.0634 13.6525 65.2069 14.384 65.4972 15.0584C65.7833 15.7352 66.1983 16.3258 66.737 16.8262C67.2807 17.3259 67.9475 17.7189 68.7373 18.0032C69.5265 18.2875 70.4284 18.4297 71.4513 18.4297C72.4693 18.4297 73.3795 18.2875 74.1736 18.0032C74.972 17.7189 75.6395 17.3259 76.1824 16.8262C76.7246 16.3258 77.1367 15.7352 77.4159 15.0584C77.695 14.384 77.8343 13.6525 77.8343 12.8665C77.8343 12.2324 77.7237 11.6439 77.5034 11.1008C77.2848 10.5647 76.9795 10.0696 76.6 9.63592H79.1923V6.88093H73.5951V4.07551H69.3789C69.1956 4.07551 69.0697 4.14661 68.9948 4.28808C68.922 4.4309 68.9668 4.5944 69.1305 4.77699C69.3621 5.06139 69.5063 5.33283 69.5643 5.59154C69.6217 5.84964 69.6503 6.19499 69.6503 6.63005V6.88093H63.6606V9.63592H66.2472C65.8708 10.071 65.577 10.5543 65.3727 11.0881ZM85.0597 4.77711H80.8436C80.6624 4.77711 80.5351 4.84748 80.4609 4.99029C80.3861 5.13176 80.4308 5.29391 80.5994 5.47932C80.8282 5.76226 80.9821 6.03382 81.0668 6.29179C81.1451 6.54977 81.1914 6.89733 81.1914 7.33091V20.7057H85.0597V13.3946H87.8682V10.5636H85.0597V4.77711ZM104.316 11.5652C103.525 12.0003 102.195 12.2178 100.323 12.2178C98.4459 12.2178 97.1172 12.0003 96.3266 11.5652C95.5374 11.131 95.1421 10.5211 95.1421 9.7364C95.1421 8.96884 95.5374 8.35535 96.3266 7.89618C97.1172 7.4364 98.4459 7.20609 100.323 7.20609C102.195 7.20609 103.525 7.4364 104.316 7.89618C105.104 8.35535 105.498 8.96884 105.498 9.7364C105.498 10.5211 105.104 11.131 104.316 11.5652ZM107.163 5.96651C106.414 5.50734 105.473 5.15403 104.342 4.90169C103.208 4.65228 101.868 4.52782 100.323 4.52782C98.7741 4.52782 97.4376 4.65228 96.3007 4.90169C95.1694 5.15403 94.2318 5.50734 93.4902 5.96651C92.7521 6.42702 92.1994 6.97785 91.8384 7.61899C91.4773 8.26369 91.2995 8.96884 91.2995 9.7364C91.2995 10.4877 91.4773 11.1807 91.8384 11.8168C92.1994 12.4502 92.7521 12.9961 93.4902 13.456C94.2318 13.9152 95.1694 14.2754 96.3007 14.5335C97.4376 14.793 98.7741 14.9209 100.323 14.9209C101.868 14.9209 103.208 14.793 104.342 14.5335C105.473 14.2754 106.414 13.9152 107.163 13.456C107.909 12.9961 108.469 12.4502 108.827 11.8168C109.188 11.1807 109.37 10.4877 109.37 9.7364C109.37 8.96884 109.188 8.26369 108.827 7.61899C108.469 6.97785 107.909 6.42702 107.163 5.96651ZM109.691 25.0917H96.5748C96.1647 25.0917 95.8722 25.0312 95.6995 24.9161C95.5259 24.7996 95.4399 24.5138 95.4399 24.0653V20.3565H91.2489C91.0685 20.3565 90.9452 20.431 90.8795 20.5831C90.8131 20.7317 90.853 20.8995 91.0012 21.0828C91.1839 21.3004 91.3147 21.5107 91.3972 21.709C91.4799 21.9094 91.519 22.1355 91.519 22.3835V24.7398C91.519 25.3745 91.6022 25.8977 91.7772 26.3049C91.9521 26.7129 92.2137 27.0406 92.5678 27.2823C92.9198 27.5246 93.3745 27.691 93.9244 27.7847C94.4743 27.8771 95.1187 27.9212 95.8582 27.9212H109.691V25.0917ZM112.058 16.1236H88.5609V18.8523H112.058V16.1236ZM117.728 11.2272C117.812 10.9002 117.945 10.6081 118.136 10.3494C118.324 10.092 118.569 9.8821 118.85 9.73603C119.139 9.58538 119.477 9.51147 119.874 9.51147C120.267 9.51147 120.608 9.58538 120.896 9.73603C121.182 9.88668 121.422 10.0914 121.612 10.3494C121.803 10.6118 121.941 10.9102 122.017 11.2272C122.1 11.5589 122.142 11.9 122.141 12.2422C122.141 12.5749 122.099 12.9019 122.017 13.2181C121.94 13.5266 121.803 13.8161 121.612 14.069C121.422 14.3206 121.182 14.5217 120.896 14.671C120.608 14.8203 120.267 14.897 119.874 14.897C119.477 14.897 119.139 14.8203 118.85 14.671C118.563 14.5217 118.325 14.3206 118.136 14.069C117.945 13.8187 117.812 13.5344 117.728 13.2181C117.645 12.8996 117.603 12.5716 117.604 12.2422C117.604 11.8889 117.645 11.5527 117.728 11.2272ZM114.363 10.7141C114.208 11.1824 114.128 11.6808 114.128 12.2167C114.128 13.017 114.255 13.7512 114.511 14.4186C114.765 15.0882 115.135 15.6554 115.622 16.1237C116.104 16.5915 116.704 16.954 117.42 17.2127C118.136 17.4714 118.955 17.6015 119.874 17.6015C120.794 17.6015 121.612 17.4714 122.325 17.2127C123.041 16.954 123.643 16.5915 124.127 16.1237C124.609 15.6554 124.982 15.0882 125.237 14.4186C125.488 13.7512 125.618 13.017 125.618 12.2167C125.618 11.6808 125.537 11.1824 125.372 10.7141C125.204 10.2456 124.985 9.81986 124.706 9.43681H126.359V6.68035H121.97V4H117.9C117.721 4 117.588 4.07539 117.508 4.22469C117.423 4.37742 117.462 4.55156 117.63 4.75275C117.86 5.02064 117.999 5.28229 118.052 5.541C118.101 5.79897 118.122 6.15436 118.122 6.60643V6.68035H113.069V9.43681H115.017C114.737 9.81986 114.519 10.2456 114.363 10.7141ZM127.023 4.92776C126.86 4.92776 126.746 4.98882 126.679 5.11536C126.613 5.24117 126.652 5.4125 126.802 5.62997C126.949 5.84609 127.067 6.05719 127.161 6.26756C127.249 6.47585 127.293 6.80701 127.293 7.25626V17.1496H130.821V12.4926H132.473V17.8283H136V4.77699H132.473V9.53496H130.821V4.92776H127.023ZM122.377 22.4734C122.549 22.165 122.831 21.9083 123.226 21.7094C123.62 21.5089 124.133 21.3568 124.768 21.2444C125.401 21.135 126.176 21.0852 127.1 21.0852C128.017 21.0852 128.794 21.135 129.429 21.2444C130.058 21.3568 130.569 21.5089 130.957 21.7094C131.343 21.9083 131.621 22.165 131.793 22.4734C131.969 22.7826 132.056 23.1358 132.056 23.5375C132.056 23.9212 131.969 24.2688 131.793 24.5773C131.621 24.8864 131.343 25.1438 130.957 25.3521C130.569 25.561 130.058 25.7209 129.429 25.8311C128.794 25.9384 128.017 25.9925 127.1 25.9925C126.176 25.9925 125.401 25.9384 124.768 25.8311C124.133 25.7209 123.62 25.561 123.226 25.3521C122.831 25.1438 122.549 24.8864 122.377 24.5773C122.203 24.2688 122.117 23.9212 122.117 23.5375C122.117 23.1358 122.203 22.7826 122.377 22.4734ZM118.197 23.5375C118.197 24.3236 118.385 25.0408 118.764 25.6911C119.143 26.3401 119.709 26.8995 120.464 27.3564C121.223 27.8156 122.147 28.171 123.248 28.422C124.352 28.6721 125.636 28.8 127.1 28.8C128.527 28.8 129.796 28.6721 130.906 28.422C132.018 28.171 132.943 27.8156 133.694 27.3564C134.44 26.8995 135.014 26.3401 135.405 25.6911C135.802 25.0408 135.998 24.3236 135.998 23.5375C135.998 21.9197 135.233 20.6367 133.703 19.6907C132.177 18.7504 129.973 18.2783 127.1 18.2783C124.157 18.2783 121.934 18.7504 120.438 19.6907C118.947 20.6367 118.197 21.9197 118.197 23.5375Z" fill="white"/>
</svg>
