<svg width="184" height="32" viewBox="0 0 184 32" fill="none" xmlns="http://www.w3.org/2000/svg">
<path d="M31.9821 15.2877C31.9934 15.5219 32.0001 15.7545 32.0016 15.9864V15.9991C32.0016 23.4013 26.9759 29.63 20.1491 31.4573C19.0288 31.7549 17.8797 31.9312 16.7218 31.9831C16.3731 31.9989 16.0259 32.0034 15.6809 31.9974C7.58344 31.8388 0.96085 25.6648 0.0957863 17.7591C0.0589278 17.4167 0.0334915 17.0732 0.0195199 16.7291C0.00814253 16.4971 0.00163445 16.2649 0 16.0327L0 15.9991C0 7.16435 7.16286 0 16.0004 0C23.5374 0 29.8554 5.2099 31.5534 12.2224C31.7947 13.2279 31.9383 14.2545 31.9821 15.2877ZM24.4459 7.97C23.5097 7.71123 22.8175 7.48904 22.6133 7.05896C22.5167 6.85544 22.5758 6.65054 22.709 6.55475C22.8535 6.44926 23.048 6.48446 23.2748 6.59518C23.6101 6.75752 24.0201 6.99838 24.3352 7.0372C25.2525 7.14792 25.0849 5.74473 23.4364 4.93012C22.4666 4.44841 21.5177 4.25097 20.2321 4.29876C19.7562 4.31828 19.3072 4.301 18.9091 4.23817C18.3082 4.14548 17.5719 3.89033 17.0758 3.78719C16.6964 3.70708 16.4801 3.71764 16.3895 3.84404C16.3058 3.96372 16.3326 4.14025 16.5639 4.43273C17.0279 5.01758 17.759 5.66835 17.3848 7.19059C16.4591 10.9642 17.7268 12.6914 19.0184 12.9749C19.742 13.1357 20.4087 12.9659 20.8158 12.5433C21.2027 12.1386 21.3695 11.4541 20.9969 10.8745C20.4267 9.98663 20.2254 9.21469 20.735 8.89373C21.2005 8.59986 21.8619 8.87058 22.3648 9.99559C23.1692 11.7983 24.2161 12.2762 25.2631 10.9942C26.1206 9.94397 26.087 8.42333 24.4459 7.97ZM21.5327 17.8197C17.1932 15.2197 15.0411 14.1911 13.2848 12.9375C10.3746 10.8626 9.91442 9.31645 9.82535 8.24083C9.66674 6.31539 11.1237 4.58228 12.6068 3.76543C12.7213 3.69588 12.9174 3.53588 12.8321 3.31668C12.746 3.09524 12.4804 3.13791 12.3809 3.15956C9.06354 3.86345 5.83987 6.7844 6.34046 10.6838C6.54025 12.2283 7.52275 14.8366 12.6105 17.8325C14.3459 18.8535 15.844 19.6277 18.196 20.974C21.3808 22.7947 22.8468 25.1404 20.8742 27.6993C20.7245 27.8781 20.5958 28.0636 20.6496 28.2252C20.7103 28.4122 20.9565 28.4444 21.1863 28.3411C22.7001 27.644 23.9505 26.5976 24.5462 25.6274C25.5946 23.919 26.1168 20.5687 21.5327 17.8197ZM16.4569 28.202C16.0723 28.0913 15.4886 27.9103 15.0022 27.6978C14.3885 27.4301 13.8341 27.1361 13.5894 26.8938C13.4292 26.7329 13.4045 26.5512 13.5325 26.3642C14.2659 25.3102 14.4724 24.8928 14.6774 24.3969C15.1129 23.3467 14.6826 23.245 14.0069 23.4395C13.2721 23.6496 12.6906 23.8643 12.2402 24.0334C11.6086 24.269 11.218 24.4134 10.9882 24.3011C10.7488 24.1852 10.7046 23.7693 10.6185 23.0797C10.5579 22.589 10.4547 22.0295 10.323 21.4834C10.0514 20.3892 9.5829 20.5993 9.19602 21.0466C8.7141 21.6315 8.44851 22.3557 8.24861 22.7356C8.14163 22.939 8.01896 23.0064 7.86931 22.9742C7.53555 22.9032 7.0948 22.3863 6.61363 21.7722C5.91091 20.8739 5.59742 20.1834 5.23145 20.1407C4.45396 20.0503 4.79966 21.8889 5.52926 23.4043C6.24094 24.8876 7.34472 26.3478 9.19378 27.5161C11.3032 28.8513 14.4208 29.336 16.3356 29.0667C16.9403 28.9815 17.06 28.3756 16.4569 28.202Z" fill="white"/>
<path d="M40.8402 17.7894C41.0956 17.7631 41.402 17.6814 41.7651 17.5393C42.1269 17.3963 42.5089 17.2123 42.9118 16.9883C43.31 16.764 43.7004 16.5258 44.0824 16.274C45.4138 15.3721 46.5311 14.2704 47.4338 12.9668C47.813 13.5027 48.2775 14.0067 48.8302 14.4829C49.3765 14.9562 49.9565 15.3879 50.5654 15.7743C51.6365 16.4411 52.4692 16.842 53.0687 16.9749C53.6704 17.1085 54.0504 17.0247 54.2148 16.7233L55.277 14.6962C54.5542 14.4452 53.8328 14.1381 53.1163 13.7678C52.4027 13.4025 51.7633 12.9668 51.1937 12.4672C50.6291 11.9653 50.1645 11.3853 49.8034 10.7257C49.4396 10.0654 49.2592 9.32765 49.2592 8.50955V5.17802H44.9948C44.8136 5.17802 44.6897 5.25488 44.6246 5.40344C44.5582 5.55409 44.6001 5.72114 44.7464 5.90312C44.9786 6.17247 45.1214 6.43473 45.1787 6.69344C45.2375 6.95142 45.2648 7.29126 45.2648 7.70845V8.75822C45.2648 9.56005 45.1059 10.2957 44.7855 10.9652C44.4644 11.6327 44.025 12.2417 43.4659 12.7927C42.9055 13.3449 42.2619 13.841 41.5301 14.2811C40.7996 14.7253 40.0216 15.1048 39.2002 15.4225L40.3336 17.6011C40.4169 17.7517 40.5834 17.8143 40.8402 17.7894ZM47.5341 24.8029C47.2863 24.611 47.1625 24.2229 47.1625 23.6372V19.0789H42.9723C42.7891 19.0789 42.6673 19.1536 42.6035 19.3042C42.5364 19.4549 42.577 19.6199 42.7274 19.8024C42.9576 20.0918 43.1011 20.3519 43.1577 20.5936C43.2144 20.8381 43.2451 21.1743 43.2451 21.6093V24.0146C43.2451 24.7801 43.3431 25.4177 43.5398 25.9159C43.7377 26.4178 44.04 26.818 44.4528 27.1192C44.8642 27.4207 45.3729 27.6282 45.9816 27.7455C46.5889 27.8621 47.3032 27.9217 48.1239 27.9217H61.439V25.0914H48.7424C48.1813 25.0914 47.7804 24.994 47.5341 24.8029ZM61.0698 20.3577V4.77454H56.8543C56.6731 4.77454 56.5458 4.84919 56.4716 4.98846C56.3975 5.13213 56.4345 5.29551 56.5822 5.47969C56.8124 5.74696 56.9719 6.0113 57.0635 6.27858C57.1531 6.54659 57.1999 6.89769 57.1999 7.33055V20.3577H61.0698ZM67.6533 25.9163C67.8492 26.4201 68.155 26.8197 68.5635 27.1202C68.9763 27.4202 69.4864 27.6264 70.0931 27.7464C70.7018 27.8644 71.4174 27.9241 72.2389 27.9241H85.3581V25.0917H72.9049C72.3291 25.0917 71.9135 24.9879 71.6603 24.7917C71.4049 24.5913 71.2783 24.189 71.2783 23.587V20.0793H67.0874C66.904 20.0793 66.7815 20.1575 66.7157 20.3081C66.6507 20.456 66.6913 20.6223 66.839 20.8072C67.0201 21.0254 67.1524 21.2335 67.2335 21.4347C67.3161 21.6337 67.358 21.8598 67.358 22.11V23.9893C67.358 24.7725 67.4547 25.4144 67.6533 25.9163ZM69.454 10.6005C69.9116 10.024 70.5797 9.73407 71.4515 9.73407C72.3059 9.73407 72.9656 10.024 73.4351 10.6005C73.9045 11.1777 74.1403 11.8905 74.1403 12.7428C74.1403 13.5431 73.9045 14.2326 73.4351 14.8068C72.9656 15.3862 72.3059 15.6719 71.4515 15.6719C70.5797 15.6719 69.9116 15.3862 69.454 14.8068C68.9915 14.2326 68.7642 13.5431 68.7642 12.7428C68.7642 11.8905 68.9915 11.1777 69.454 10.6005ZM65.3729 11.0881C65.1686 11.6232 65.0637 12.216 65.0637 12.8665C65.0637 13.6525 65.2072 14.384 65.4975 15.0584C65.7836 15.7352 66.1986 16.3258 66.7373 16.8262C67.2809 17.3259 67.9477 17.7189 68.7376 18.0032C69.5267 18.2875 70.4287 18.4297 71.4515 18.4297C72.4696 18.4297 73.3798 18.2875 74.1739 18.0032C74.9722 17.7189 75.6397 17.3259 76.1826 16.8262C76.7248 16.3258 77.1369 15.7352 77.4162 15.0584C77.6953 14.384 77.8345 13.6525 77.8345 12.8665C77.8345 12.2324 77.724 11.6439 77.5036 11.1008C77.2851 10.5647 76.9797 10.0696 76.6003 9.63592H79.1925V6.88093H73.5953V4.07551H69.3792C69.1958 4.07551 69.07 4.14661 68.995 4.28808C68.9223 4.4309 68.9671 4.5944 69.1308 4.77699C69.3623 5.06139 69.5065 5.33283 69.5646 5.59154C69.6219 5.84964 69.6506 6.19499 69.6506 6.63005V6.88093H63.6609V9.63592H66.2475C65.871 10.071 65.5772 10.5543 65.3729 11.0881ZM85.06 4.77711H80.8439C80.6627 4.77711 80.5353 4.84748 80.4611 4.99029C80.3863 5.13176 80.431 5.29391 80.5997 5.47932C80.8284 5.76226 80.9824 6.03382 81.0671 6.29179C81.1454 6.54977 81.1916 6.89733 81.1916 7.33091V20.7057H85.06V13.3946H87.8685V10.5636H85.06V4.77711ZM104.316 11.5652C103.526 12.0003 102.195 12.2178 100.323 12.2178C98.4462 12.2178 97.1174 12.0003 96.3268 11.5652C95.5377 11.131 95.1423 10.5211 95.1423 9.7364C95.1423 8.96884 95.5377 8.35535 96.3268 7.89618C97.1174 7.4364 98.4462 7.20609 100.323 7.20609C102.195 7.20609 103.526 7.4364 104.316 7.89618C105.104 8.35535 105.498 8.96884 105.498 9.7364C105.498 10.5211 105.104 11.131 104.316 11.5652ZM107.163 5.96651C106.414 5.50734 105.473 5.15403 104.342 4.90169C103.208 4.65228 101.868 4.52782 100.323 4.52782C98.7743 4.52782 97.4379 4.65228 96.3009 4.90169C95.1697 5.15403 94.2321 5.50734 93.4904 5.96651C92.7523 6.42702 92.1996 6.97785 91.8386 7.61899C91.4776 8.26369 91.2998 8.96884 91.2998 9.7364C91.2998 10.4877 91.4776 11.1807 91.8386 11.8168C92.1996 12.4502 92.7523 12.9961 93.4904 13.456C94.2321 13.9152 95.1697 14.2754 96.3009 14.5335C97.4379 14.793 98.7743 14.9209 100.323 14.9209C101.868 14.9209 103.208 14.793 104.342 14.5335C105.473 14.2754 106.414 13.9152 107.163 13.456C107.91 12.9961 108.469 12.4502 108.828 11.8168C109.188 11.1807 109.37 10.4877 109.37 9.7364C109.37 8.96884 109.188 8.26369 108.828 7.61899C108.469 6.97785 107.91 6.42702 107.163 5.96651ZM109.691 25.0917H96.575C96.1649 25.0917 95.8725 25.0312 95.6997 24.9161C95.5261 24.7996 95.4401 24.5138 95.4401 24.0653V20.3565H91.2492C91.0687 20.3565 90.9455 20.431 90.8797 20.5831C90.8133 20.7317 90.8532 20.8995 91.0015 21.0828C91.1841 21.3004 91.3149 21.5107 91.3975 21.709C91.4801 21.9094 91.5192 22.1355 91.5192 22.3835V24.7398C91.5192 25.3745 91.6025 25.8977 91.7774 26.3049C91.9523 26.7129 92.214 27.0406 92.568 27.2823C92.92 27.5246 93.3748 27.691 93.9247 27.7847C94.4746 27.8771 95.1189 27.9212 95.8585 27.9212H109.691V25.0917ZM112.058 16.1236H88.5611V18.8523H112.058V16.1236ZM117.728 11.2272C117.813 10.9002 117.945 10.6081 118.136 10.3494C118.325 10.092 118.569 9.8821 118.85 9.73603C119.139 9.58538 119.477 9.51147 119.874 9.51147C120.268 9.51147 120.608 9.58538 120.897 9.73603C121.182 9.88668 121.422 10.0914 121.612 10.3494C121.804 10.6118 121.941 10.9102 122.018 11.2272C122.101 11.5589 122.142 11.9 122.141 12.2422C122.141 12.5749 122.099 12.9019 122.018 13.2181C121.941 13.5266 121.803 13.8161 121.612 14.069C121.422 14.3206 121.182 14.5217 120.897 14.671C120.608 14.8203 120.268 14.897 119.874 14.897C119.477 14.897 119.139 14.8203 118.85 14.671C118.563 14.5217 118.325 14.3206 118.136 14.069C117.945 13.8187 117.813 13.5344 117.728 13.2181C117.645 12.8996 117.604 12.5716 117.604 12.2422C117.604 11.8889 117.645 11.5527 117.728 11.2272ZM114.363 10.7141C114.208 11.1824 114.128 11.6808 114.128 12.2167C114.128 13.017 114.255 13.7512 114.511 14.4186C114.766 15.0882 115.136 15.6554 115.622 16.1237C116.105 16.5915 116.704 16.954 117.42 17.2127C118.136 17.4714 118.955 17.6015 119.874 17.6015C120.794 17.6015 121.612 17.4714 122.325 17.2127C123.041 16.954 123.643 16.5915 124.127 16.1237C124.61 15.6554 124.982 15.0882 125.237 14.4186C125.489 13.7512 125.619 13.017 125.619 12.2167C125.619 11.6808 125.537 11.1824 125.372 10.7141C125.204 10.2456 124.985 9.81986 124.706 9.43681H126.359V6.68035H121.97V4H117.901C117.721 4 117.588 4.07539 117.508 4.22469C117.423 4.37742 117.463 4.55156 117.631 4.75275C117.86 5.02064 117.999 5.28229 118.052 5.541C118.101 5.79897 118.122 6.15436 118.122 6.60643V6.68035H113.07V9.43681H115.017C114.737 9.81986 114.519 10.2456 114.363 10.7141ZM127.023 4.92776C126.86 4.92776 126.746 4.98882 126.679 5.11536C126.614 5.24117 126.652 5.4125 126.803 5.62997C126.949 5.84609 127.067 6.05719 127.161 6.26756C127.25 6.47585 127.294 6.80701 127.294 7.25626V17.1496H130.821V12.4926H132.473V17.8283H136V4.77699H132.473V9.53496H130.821V4.92776H127.023ZM122.377 22.4734C122.549 22.165 122.832 21.9083 123.226 21.7094C123.62 21.5089 124.134 21.3568 124.768 21.2444C125.401 21.135 126.176 21.0852 127.1 21.0852C128.017 21.0852 128.794 21.135 129.429 21.2444C130.058 21.3568 130.569 21.5089 130.957 21.7094C131.344 21.9083 131.621 22.165 131.793 22.4734C131.969 22.7826 132.056 23.1358 132.056 23.5375C132.056 23.9212 131.969 24.2688 131.793 24.5773C131.621 24.8864 131.344 25.1438 130.957 25.3521C130.569 25.561 130.058 25.7209 129.429 25.8311C128.794 25.9384 128.017 25.9925 127.1 25.9925C126.176 25.9925 125.401 25.9384 124.768 25.8311C124.134 25.7209 123.62 25.561 123.226 25.3521C122.832 25.1438 122.549 24.8864 122.377 24.5773C122.203 24.2688 122.117 23.9212 122.117 23.5375C122.117 23.1358 122.203 22.7826 122.377 22.4734ZM118.197 23.5375C118.197 24.3236 118.385 25.0408 118.764 25.6911C119.143 26.3401 119.709 26.8995 120.464 27.3564C121.224 27.8156 122.147 28.171 123.249 28.422C124.353 28.6721 125.637 28.8 127.1 28.8C128.527 28.8 129.796 28.6721 130.906 28.422C132.018 28.171 132.944 27.8156 133.694 27.3564C134.44 26.8995 135.014 26.3401 135.405 25.6911C135.802 25.0408 135.998 24.3236 135.998 23.5375C135.998 21.9197 135.233 20.6367 133.704 19.6907C132.177 18.7504 129.973 18.2783 127.1 18.2783C124.157 18.2783 121.935 18.7504 120.438 19.6907C118.947 20.6367 118.197 21.9197 118.197 23.5375Z" fill="white"/>
<path d="M176.873 23.9506V19.2544C176.873 18.8044 176.816 18.4388 176.704 18.1576C176.61 17.8764 176.432 17.5858 176.17 17.2859C176.001 17.0796 175.954 16.9015 176.029 16.7516C176.123 16.5828 176.273 16.4985 176.479 16.4985H181.456V24.5693C181.456 25.0192 181.213 25.4598 180.725 25.891C180.238 26.3034 179.591 26.669 178.785 26.9877C177.998 27.2876 177.098 27.5314 176.085 27.7188C175.073 27.9063 174.042 28 172.992 28C169.168 28 166.309 27.0064 164.415 25.0192C162.522 23.0132 161.575 20.098 161.575 16.2735C161.575 14.6237 161.79 13.0958 162.222 11.6897C162.672 10.2837 163.346 9.07447 164.246 8.06211C165.146 7.031 166.28 6.23423 167.649 5.67181C169.036 5.09063 170.677 4.80005 172.57 4.80005C173.958 4.80005 175.289 4.93128 176.563 5.19375C177.857 5.45621 179.019 5.83116 180.05 6.31859V9.72126C180.05 10.0025 179.957 10.1806 179.769 10.2556C179.582 10.3306 179.385 10.2743 179.179 10.0868C178.335 9.48692 177.37 8.99948 176.282 8.62453C175.214 8.24958 174.089 8.06211 172.908 8.06211C171.652 8.06211 170.592 8.27771 169.73 8.7089C168.868 9.12134 168.165 9.69314 167.621 10.4243C167.096 11.1554 166.712 12.0272 166.468 13.0396C166.243 14.0332 166.13 15.1112 166.13 16.2735C166.13 18.9731 166.674 21.0541 167.761 22.5164C168.868 23.9787 170.62 24.7099 173.02 24.7099C173.733 24.7099 174.417 24.6443 175.073 24.513C175.729 24.363 176.329 24.1756 176.873 23.9506Z" fill="white"/>
<path d="M143.657 5.41838H152.655C153.818 5.41838 154.849 5.5871 155.749 5.92456C156.649 6.26201 157.408 6.7307 158.027 7.33062C158.645 7.93054 159.114 8.66169 159.433 9.52407C159.751 10.3865 159.911 11.3332 159.911 12.3643C159.911 13.4142 159.751 14.3703 159.433 15.2327C159.114 16.0763 158.645 16.7981 158.027 17.398C157.408 17.9979 156.649 18.4666 155.749 18.8041C154.849 19.1228 153.818 19.2821 152.655 19.2821H148.662V27.3529H144.078V8.25862C144.078 7.77118 144.022 7.38686 143.91 7.10565C143.816 6.82444 143.638 6.53385 143.375 6.23389C143.207 6.02767 143.16 5.84019 143.235 5.67147C143.31 5.50274 143.45 5.41838 143.657 5.41838ZM148.662 16.0201H151.502C152.721 16.0201 153.658 15.7201 154.315 15.1202C154.989 14.5203 155.327 13.6016 155.327 12.3643C155.327 11.127 154.989 10.2084 154.315 9.60844C153.658 9.00852 152.721 8.70856 151.502 8.70856H148.662V16.0201Z" fill="white"/>
</svg>
