<svg width="24" height="24" viewBox="0 0 24 24" fill="none" xmlns="http://www.w3.org/2000/svg">
<rect width="24" height="24" rx="12" fill="#202225"/>
<path d="M13.1953 13.3438L14.0547 14.4531C14.3307 14.1302 14.5391 13.7318 14.6797 13.2578C14.8255 12.7786 14.8984 12.2292 14.8984 11.6094C14.8984 10.8125 14.7786 10.1354 14.5391 9.57812C14.3047 9.02083 13.9714 8.59896 13.5391 8.3125C13.1068 8.02083 12.5964 7.875 12.0078 7.875C11.4193 7.875 10.9062 8.02083 10.4688 8.3125C10.0365 8.59896 9.70052 9.02344 9.46094 9.58594C9.22135 10.1432 9.10156 10.8177 9.10156 11.6094C9.10156 12.401 9.22135 13.0781 9.46094 13.6406C9.70052 14.1979 10.0365 14.6224 10.4688 14.9141C10.9062 15.2005 11.4193 15.3438 12.0078 15.3438C12.2214 15.3438 12.4375 15.3229 12.6562 15.2812L11.1797 13.3438H13.1953ZM17.2891 11.6094C17.2891 12.5938 17.1302 13.474 16.8125 14.25C16.5 15.0208 16.0599 15.6589 15.4922 16.1641L17.1016 18.2031H14.8984L13.9844 17.0703C13.3854 17.3047 12.7266 17.4219 12.0078 17.4219C10.9974 17.4219 10.0911 17.1901 9.28906 16.7266C8.48698 16.263 7.85677 15.5938 7.39844 14.7188C6.9401 13.8385 6.71094 12.8021 6.71094 11.6094C6.71094 10.4115 6.9401 9.375 7.39844 8.5C7.85677 7.61979 8.48698 6.95052 9.28906 6.49219C10.0911 6.02865 10.9974 5.79688 12.0078 5.79688C13.013 5.79688 13.9141 6.02865 14.7109 6.49219C15.513 6.95052 16.1432 7.61979 16.6016 8.5C17.0599 9.375 17.2891 10.4115 17.2891 11.6094Z" fill="white"/>
</svg>
